<svg id="Lag_1" data-name="Lag 1" xmlns="http://www.w3.org/2000/svg" width="1050" height="700" viewBox="0 0 1050 700"><defs><style>.cls-1{fill:#41c2e5;}.cls-2{fill:#fff27d;}.cls-3{fill:#fc598f;}.cls-4{fill:#def0f9;}.cls-5{fill:#f39ac0;}.cls-6{fill:#fff;}.cls-7{fill:#fcee21;}</style></defs><title>Glad_Regnbue</title><path class="cls-1" d="M109.69,567.63c0-66.57,11.06-131.21,32.86-192.13C163.6,316.72,193.7,264,232,218.67S315,137.82,364.76,113C416.32,87.19,471,74.12,527.38,74.12S638.43,87.19,690,113c49.75,24.86,94.41,60.42,132.74,105.71s68.43,98.05,89.47,156.83c21.81,60.92,32.87,125.56,32.87,192.13,0,.17,0,.34,0,.51h51.57v-.51c0-74.77-12.43-147.4-36.94-215.86-23.64-66-57.45-125.32-100.5-176.18S766,84.78,710.08,56.84c-58-29-119.42-43.64-182.7-43.64S402.63,27.88,344.67,56.84c-55.89,27.93-106.06,67.89-149.11,118.75S118.7,285.72,95.06,351.76c-24.51,68.47-36.94,141.1-36.94,215.87v.51h51.57Z"/><path class="cls-2" d="M160.4,567.63a499.27,499.27,0,0,1,28.86-168.79c18.48-51.64,44.94-98,78.62-137.81s72.93-71.06,116.64-92.9c45.27-22.62,93.34-34.1,142.86-34.1s97.58,11.48,142.86,34.1c43.7,21.84,83,53.1,116.63,92.9S847,347.2,865.5,398.84a499.27,499.27,0,0,1,28.86,168.79v.51h51.56c0-.17,0-.34,0-.51,0-66.71-11.09-131.48-32.94-192.53C891.91,316.2,861.74,263.33,823.34,218s-83.16-81-133-105.93c-51.67-25.82-106.49-38.91-163-38.91S416.09,86.2,364.43,112c-49.85,24.91-94.61,60.55-133,105.93S162.85,316.2,141.76,375.1c-21.85,61-32.93,125.82-32.93,192.53v.51H160.4Z"/><path class="cls-3" d="M211.1,567.63C211.1,361.25,352.7,194,527.38,194s316.27,167.3,316.27,373.68v.51h51.57v-.51a500.35,500.35,0,0,0-28.93-169.19c-18.53-51.76-45-98.23-78.81-138.13s-73.1-71.22-116.91-93.11C625.19,144.52,577,133,527.38,133s-97.82,11.5-143.2,34.18c-43.81,21.89-83.14,53.22-116.91,93.11S207,346.68,188.46,398.44a500.59,500.59,0,0,0-28.92,169.19v.51h51.57C211.1,568,211.1,567.8,211.1,567.63Z"/><path class="cls-4" d="M221.19,529.53c.91-4.51,5.76-33,5.76-37.82,0-37.39-21.55-55.75-57.6-55.75s-65.28,30.31-65.28,67.69a113.84,113.84,0,0,0,1.1,16.22,99.33,99.33,0,0,0-21.27-2.28C42,517.59,8.06,543,8.06,574.33s34,56.74,75.84,56.74c23.9,0,45.2-8.27,59.11-21.2C154.85,638.34,189.45,659,230.3,659c50.63,0,90.69-33.21,77.29-69.69C292.23,547.45,270.46,530.73,221.19,529.53Z"/><path class="cls-4" d="M955.3,561.33c.89-4.39,5.61-32.12,5.61-36.79,0-36.36-21-54.22-56-54.22s-63.49,29.48-63.49,65.84a110.66,110.66,0,0,0,1.07,15.77,96.52,96.52,0,0,0-20.68-2.22C781,549.71,748,574.42,748,604.9s33,55.19,73.76,55.19c23.24,0,44-8.05,57.48-20.62,11.52,27.68,45.17,47.73,84.91,47.73,49.24,0,88.2-32.3,75.17-67.78C1024.4,578.76,1003.23,562.49,955.3,561.33Z"/><path class="cls-5" d="M575.42,112a37,37,0,0,1-73.79-4.77"/><ellipse cx="433.48" cy="80.47" rx="28.03" ry="27.77"/><circle class="cls-6" cx="436.8" cy="65.32" r="7.19"/><circle class="cls-6" cx="446.52" cy="72.18" r="7.19"/><ellipse cx="655.48" cy="87.47" rx="28.03" ry="27.77"/><circle class="cls-6" cx="658.8" cy="72.32" r="7.19"/><circle class="cls-6" cx="668.52" cy="79.18" r="7.19"/><path class="cls-7" d="M452.34,211.91a1.5,1.5,0,0,0,0-3,1.5,1.5,0,0,0,0,3Z"/></svg>
