<svg id="Lag_1" data-name="Lag 1" xmlns="http://www.w3.org/2000/svg" width="1050" height="700" viewBox="0 0 1050 700"><defs><style>.cls-1{fill:#666;}.cls-2{fill:#999;}.cls-3{fill:#ccc;}.cls-4{fill:#f2f2f2;}.cls-5{fill:#fff;}.cls-6{fill:none;stroke:#000;stroke-linecap:round;stroke-linejoin:round;stroke-width:9px;}</style></defs><title>Ked_Regnbue</title><path class="cls-1" d="M109.76,566.71c0-66.57,11.06-131.21,32.87-192.13C163.68,315.8,193.79,263,232.12,217.76s83-80.85,132.74-105.71c51.56-25.76,106.27-38.82,162.62-38.82s111,13.07,162.61,38.84c49.75,24.87,94.4,60.44,132.73,105.72s68.42,98.06,89.46,156.84c21.8,60.92,32.86,125.56,32.85,192.13v.51H996.7v-.51c0-74.76-12.42-147.39-36.92-215.86-23.64-66-57.45-125.32-100.5-176.19S766.08,83.9,710.18,56C652.23,27,590.76,12.31,527.48,12.3S402.73,27,344.78,55.94c-55.9,27.93-106.07,67.88-149.12,118.73S118.79,284.8,95.14,350.84C70.63,419.31,58.2,491.94,58.19,566.71v.5h51.57Z"/><path class="cls-2" d="M160.46,566.71a499.53,499.53,0,0,1,28.87-168.79c18.49-51.64,44.95-98,78.64-137.8s72.93-71.05,116.64-92.89c45.28-22.62,93.34-34.09,142.86-34.09s97.59,11.48,142.86,34.11c43.71,21.84,82.95,53.1,116.63,92.9S847.1,346.32,865.58,398a499.36,499.36,0,0,1,28.85,168.8v.51H946v-.51c0-66.71-11.07-131.48-32.92-192.53-21.08-58.9-51.24-111.78-89.64-157.16s-83.16-81-133-105.93C638.76,85.31,583.94,72.22,527.48,72.21s-111.29,13.09-163,38.91c-49.85,24.91-94.6,60.54-133,105.92s-68.58,98.24-89.67,157.14C120,435.23,108.9,500,108.9,566.71v.51h51.57C160.47,567.05,160.46,566.88,160.46,566.71Z"/><path class="cls-3" d="M211.17,566.72c0-206.38,141.63-373.68,316.3-373.67S843.73,360.38,843.72,566.76v.5h51.56c0-.17,0-.34,0-.51a500.59,500.59,0,0,0-28.92-169.19c-18.53-51.76-45-98.24-78.8-138.13s-73.1-71.23-116.9-93.13c-45.38-22.68-93.56-34.18-143.2-34.18s-97.81,11.49-143.2,34.17c-43.81,21.89-83.14,53.21-116.91,93.1s-60.28,86.37-78.82,138.13A500.59,500.59,0,0,0,159.6,566.71c0,.17,0,.34,0,.51h51.56Z"/><path class="cls-4" d="M221.26,528.62c.92-4.51,5.76-33,5.76-37.83,0-37.38-21.54-55.74-57.6-55.75s-65.28,30.31-65.28,67.69a113.84,113.84,0,0,0,1.1,16.22A99.3,99.3,0,0,0,84,516.67c-41.89,0-75.85,25.4-75.85,56.73S42.08,630.15,84,630.15c23.9,0,45.2-8.27,59.1-21.19C154.91,637.42,189.51,658,230.36,658c50.63,0,90.7-33.2,77.3-69.67C292.3,546.54,270.53,529.82,221.26,528.62Z"/><path class="cls-4" d="M955.37,560.46c.89-4.39,5.61-32.12,5.61-36.79,0-36.36-21-54.22-56-54.22s-63.5,29.47-63.5,65.83a110.46,110.46,0,0,0,1.07,15.77,97.16,97.16,0,0,0-20.68-2.21c-40.74,0-73.76,24.7-73.77,55.18s33,55.19,73.76,55.19c23.25,0,44-8.05,57.49-20.61,11.52,27.68,45.16,47.73,84.9,47.73,49.24,0,88.21-32.29,75.18-67.77C1024.47,577.9,1003.3,561.63,955.37,560.46Z"/><ellipse cx="433.58" cy="79.57" rx="28.03" ry="27.77"/><circle class="cls-5" cx="436.9" cy="64.42" r="7.19"/><circle class="cls-5" cx="446.62" cy="71.28" r="7.19"/><ellipse cx="655.58" cy="86.58" rx="28.03" ry="27.77"/><circle class="cls-5" cx="658.9" cy="71.43" r="7.19"/><circle class="cls-5" cx="668.62" cy="78.3" r="7.19"/><path class="cls-6" d="M576.16,130.75c-6.31-13.12-15.25-17.36-33.66-17s-18.09,4.76-26.92,18.16"/></svg>
