<svg id="Lag_1" data-name="Lag 1" xmlns="http://www.w3.org/2000/svg" width="1050" height="700" viewBox="0 0 1050 700"><defs><style>.cls-1{fill:#9ddaec;}.cls-2{fill:#edeea1;}.cls-3{fill:#fcd4e7;}.cls-4{fill:#def0f9;}.cls-5{fill:#fff;}.cls-6{fill:none;stroke:#000;stroke-linecap:round;stroke-linejoin:round;stroke-width:9px;}.cls-7{fill:#fcee21;}</style></defs><title>OK_regnbue</title><path class="cls-1" d="M108.79,569.24c0-66.57,11-131.22,32.86-192.14,21-58.78,51.15-111.54,89.48-156.83s83-80.85,132.73-105.71c51.56-25.77,106.27-38.83,162.62-38.83s111,13.06,162.61,38.83C738.84,139.42,783.5,175,821.83,220.27s68.43,98,89.47,156.83c21.81,60.92,32.86,125.57,32.86,192.14v.5h51.57v-.5c0-74.77-12.43-147.4-36.94-215.87-23.64-66-57.45-125.32-100.5-176.18S765.08,86.38,709.18,58.45c-57.95-29-119.42-43.65-182.7-43.65S401.72,29.49,343.77,58.45c-55.89,27.93-106.06,67.88-149.11,118.74S117.8,287.33,94.16,353.37c-24.51,68.47-36.94,141.1-36.94,215.87v.5h51.57Z"/><path class="cls-2" d="M159.49,569.24a499.37,499.37,0,0,1,28.86-168.8c18.49-51.64,44.94-98,78.63-137.8s72.93-71.06,116.63-92.9c45.28-22.63,93.35-34.1,142.87-34.1s97.58,11.47,142.86,34.1c43.7,21.84,82.94,53.1,116.63,92.9s60.14,86.16,78.63,137.8a499.37,499.37,0,0,1,28.86,168.8c0,.16,0,.33,0,.5H945v-.5c0-66.71-11.08-131.49-32.93-192.53-21.08-58.9-51.25-111.78-89.66-157.15s-83.15-81-133-105.93C637.76,87.81,582.93,74.71,526.48,74.71s-111.29,13.1-163,38.92c-49.86,24.91-94.61,60.55-133,105.93S162,317.81,140.86,376.71c-21.85,61-32.93,125.82-32.93,192.53v.5H159.5C159.5,569.57,159.49,569.4,159.49,569.24Z"/><path class="cls-3" d="M210.2,569.24c0-206.38,141.6-373.69,316.28-373.69S842.75,362.86,842.75,569.24v.5h51.56c0-.17,0-.34,0-.5a500.6,500.6,0,0,0-28.93-169.19c-18.53-51.76-45-98.24-78.81-138.13s-73.1-71.22-116.91-93.12c-45.38-22.68-93.56-34.17-143.19-34.17s-97.82,11.49-143.2,34.17c-43.81,21.9-83.14,53.23-116.91,93.12s-60.28,86.37-78.81,138.13a500.6,500.6,0,0,0-28.93,169.19c0,.16,0,.33,0,.5H210.2Z"/><path class="cls-4" d="M220.29,531.14c.91-4.52,5.76-33,5.76-37.83,0-37.38-21.55-55.74-57.6-55.74s-65.29,30.3-65.29,67.69a113.58,113.58,0,0,0,1.11,16.21A100,100,0,0,0,83,519.19c-41.88,0-75.84,25.41-75.84,56.75s34,56.74,75.84,56.74c23.9,0,45.2-8.28,59.1-21.2,11.85,28.46,46.44,49.07,87.3,49.07,50.63,0,90.69-33.2,77.29-69.68C291.33,549.06,269.56,532.33,220.29,531.14Z"/><path class="cls-4" d="M954.4,562.94c.89-4.4,5.61-32.13,5.61-36.8,0-36.36-21-54.21-56-54.21s-63.49,29.47-63.49,65.83a110.46,110.46,0,0,0,1.07,15.77,97.16,97.16,0,0,0-20.68-2.21c-40.74,0-73.76,24.71-73.76,55.19s33,55.18,73.76,55.18c23.24,0,44-8.05,57.48-20.61,11.52,27.68,45.17,47.72,84.9,47.72,49.25,0,88.21-32.29,75.18-67.77C1023.5,580.36,1002.33,564.1,954.4,562.94Z"/><ellipse cx="432.58" cy="82.07" rx="28.03" ry="27.77"/><circle class="cls-5" cx="435.9" cy="66.93" r="7.19"/><circle class="cls-5" cx="445.62" cy="73.79" r="7.19"/><ellipse cx="654.58" cy="89.07" rx="28.03" ry="27.77"/><circle class="cls-5" cx="657.9" cy="73.93" r="7.19"/><circle class="cls-5" cx="667.62" cy="80.79" r="7.19"/><path class="cls-6" d="M575.16,117.38c-6.31,13.11-15.25,17.36-33.66,17s-18.09-4.75-26.92-18.16"/><path class="cls-7" d="M453.43,344.71a1.5,1.5,0,0,0,0-3,1.5,1.5,0,0,0,0,3Z"/></svg>
